<svg xmlns="http://www.w3.org/2000/svg" width="68.375" height="58.759" viewBox="0 0 68.375 58.759">
  <g id="conseil-achat" transform="translate(0 -36.002)">
    <path id="Tracé_102" data-name="Tracé 102" d="M67.306,45.266a4.788,4.788,0,0,0-3.74-1.786H11.45l-.465-3.335A4.828,4.828,0,0,0,6.223,36H2.137a2.137,2.137,0,1,0,0,4.273H6.223a.536.536,0,0,1,.529.46l5.768,41.336a4.828,4.828,0,0,0,4.762,4.143H19.6a6.41,6.41,0,1,0,12.085,0H43.1a6.41,6.41,0,1,0,12.085,0h4.641a2.137,2.137,0,0,0,0-4.273H17.281a.536.536,0,0,1-.529-.46l-.532-3.813H58.3a4.834,4.834,0,0,0,4.7-3.8L68.267,49.3a4.786,4.786,0,0,0-.961-4.03ZM27.777,88.351a2.137,2.137,0,1,1-2.137-2.137A2.139,2.139,0,0,1,27.777,88.351Zm23.5,0a2.137,2.137,0,1,1-2.137-2.137A2.139,2.139,0,0,1,51.281,88.351ZM64.088,48.4,58.823,72.971a.538.538,0,0,1-.523.423H15.624l-3.578-25.64h51.52a.534.534,0,0,1,.523.646Z"/>
  </g>
</svg>
