<svg xmlns="http://www.w3.org/2000/svg" width="84.225" height="84.245" viewBox="0 0 84.225 84.245">
  <g id="Brain" transform="translate(-1.985 -1.985)">
    <path id="Tracé_63" data-name="Tracé 63" d="M32.4,8A1.4,1.4,0,0,0,31,9.4V69.749a1.4,1.4,0,1,0,2.807,0V9.4A1.4,1.4,0,0,0,32.4,8Z" transform="translate(11.704 2.426)"/>
    <path id="Tracé_64" data-name="Tracé 64" d="M27.4,29A1.4,1.4,0,0,0,26,30.4v1.4a1.4,1.4,0,0,0,2.807,0V30.4A1.4,1.4,0,0,0,27.4,29Z" transform="translate(9.687 10.898)"/>
    <path id="Tracé_65" data-name="Tracé 65" d="M35,19.4v1.4a1.4,1.4,0,0,0,2.807,0V19.4A1.4,1.4,0,1,0,35,19.4Z" transform="translate(13.318 6.46)"/>
    <path id="Tracé_66" data-name="Tracé 66" d="M16.614,26A5.614,5.614,0,0,0,11,31.614a1.4,1.4,0,0,0,2.807,0,2.807,2.807,0,1,1,2.807,2.807,1.4,1.4,0,1,0,0,2.807,5.614,5.614,0,1,0,0-11.227Z" transform="translate(3.637 9.687)"/>
    <path id="Tracé_67" data-name="Tracé 67" d="M47.614,40.227a1.4,1.4,0,0,0,0-2.807,2.807,2.807,0,1,1,0-5.614,1.4,1.4,0,0,0,0-2.807,5.614,5.614,0,1,0,0,11.227Z" transform="translate(16.142 10.898)"/>
    <path id="Tracé_68" data-name="Tracé 68" d="M37.807,39H36.4a1.4,1.4,0,0,0,0,2.807h1.4a1.4,1.4,0,1,0,0-2.807Z" transform="translate(13.318 14.931)"/>
    <path id="Tracé_69" data-name="Tracé 69" d="M42.392,29.571a1.4,1.4,0,1,0-1.558-2.335l-.46.307A9.8,9.8,0,0,0,36,35.717v1.107a1.4,1.4,0,1,0,2.807,0V35.717a7,7,0,0,1,3.125-5.838Z" transform="translate(13.721 10.091)"/>
    <path id="Tracé_70" data-name="Tracé 70" d="M38.21,11.614a1.4,1.4,0,0,0,2.807,0A5.614,5.614,0,0,0,35.4,6a1.4,1.4,0,1,0,0,2.807A2.807,2.807,0,0,1,38.21,11.614Z" transform="translate(12.915 1.62)"/>
    <path id="Tracé_71" data-name="Tracé 71" d="M22.21,45.807a1.4,1.4,0,1,0,0-2.807,4.21,4.21,0,1,0,0,8.42,1.4,1.4,0,1,0,0-2.807,1.4,1.4,0,0,1,0-2.807Z" transform="translate(6.46 16.545)"/>
    <path id="Tracé_72" data-name="Tracé 72" d="M80.6,74.982a5.614,5.614,0,0,0-5.414,4.21H62.352V73.171a9.812,9.812,0,0,0,6.913-8.012h.1A8.4,8.4,0,0,0,77.452,54.4,13.849,13.849,0,0,0,82,44.108,14.034,14.034,0,0,0,74.192,31.55,12.618,12.618,0,0,0,76.3,25.864h4.3a1.4,1.4,0,0,0,1.4-1.4V13.034a5.614,5.614,0,1,0-2.807,0V23.057H76.3A12.579,12.579,0,0,0,60.866,12.175c-.017-.2-.007-.387-.035-.582a11.278,11.278,0,0,0-9.9-9.525,11.128,11.128,0,0,0-6.822,1.445,11.13,11.13,0,0,0-6.826-1.445,11.243,11.243,0,0,0-9.935,9.791c-.013.1-.014.206-.024.31a12.5,12.5,0,0,0-2.863-.34V7.62a1.4,1.4,0,0,0-1.4-1.4H13.034a5.614,5.614,0,1,0,0,2.807h8.62v3.132a12.6,12.6,0,0,0-7.63,19.395A14.034,14.034,0,0,0,6.216,44.108a13.86,13.86,0,0,0,4.547,10.3,8.384,8.384,0,0,0-.337,2.334H7.62a1.4,1.4,0,0,0-1.4,1.4v17.04a5.614,5.614,0,1,0,2.807,0V59.545h1.895a8.42,8.42,0,0,0,7.929,5.614c.038,0,.069-.01.107-.01A9.808,9.808,0,0,0,31.5,73.158c0,.14-.025.281-.025.421a12.631,12.631,0,0,0,25.261,0c0-.14-.02-.281-.024-.421a9.783,9.783,0,0,0,2.831.421V80.6a1.4,1.4,0,0,0,1.4,1.4H75.182A5.6,5.6,0,1,0,80.6,74.982ZM77.789,7.62A2.807,2.807,0,1,1,80.6,10.426,2.807,2.807,0,0,1,77.789,7.62ZM7.62,10.426A2.807,2.807,0,1,1,10.426,7.62,2.807,2.807,0,0,1,7.62,10.426ZM10.426,80.6A2.807,2.807,0,1,1,7.62,77.789,2.807,2.807,0,0,1,10.426,80.6ZM55.9,69.746a1.448,1.448,0,0,0-.14-.1A6.923,6.923,0,0,1,52.6,64.679a6.274,6.274,0,0,1-.07-.923,1.4,1.4,0,1,0-2.807,0,8.934,8.934,0,0,0,.094,1.316,9.683,9.683,0,0,0,3.907,6.566,9.616,9.616,0,0,1,.209,1.941,9.824,9.824,0,1,1-19.647,0,9.684,9.684,0,0,1,.206-1.928,9.8,9.8,0,0,0,4-7.9,1.4,1.4,0,1,0-2.807,0,7.018,7.018,0,1,1-14.034-.218,7.257,7.257,0,0,1,7.369-6.8h2.455a7.025,7.025,0,0,0,7.017-7.017v-1.4a1.4,1.4,0,1,0-2.807,0v1.4a4.21,4.21,0,0,1-4.21,4.21H29.023a10.142,10.142,0,0,0-10.064,8.409c-.041,0-.072.011-.112.011a5.6,5.6,0,0,1-4.833-2.807H16.04a1.4,1.4,0,0,0,0-2.807H13.233a5.614,5.614,0,0,1,5.614-5.614,1.4,1.4,0,1,0,0-2.807,8.408,8.408,0,0,0-6.78,3.447,11.087,11.087,0,0,1-3.044-7.657A11.24,11.24,0,0,1,16.73,33.455c.022-.008.045-.015.067-.025a11.2,11.2,0,0,1,11.1,2.463,1.4,1.4,0,1,0,1.913-2.053,13.917,13.917,0,0,0-13.073-3.3,9.814,9.814,0,0,1,4.912-15.477v9.4a1.4,1.4,0,1,0,2.807,0V14.637a9.646,9.646,0,0,1,2.982.47,11.264,11.264,0,0,0,6.868,8.547,4.233,4.233,0,0,1,2.78,3.849v2.571a1.4,1.4,0,1,0,2.807,0V27.5a7.017,7.017,0,0,0-4.54-6.456A8.419,8.419,0,1,1,43.305,6.328a1.4,1.4,0,0,0,1.605,0,8.42,8.42,0,1,1,8.42,14.514,1.4,1.4,0,1,0,1.207,2.536,11.2,11.2,0,0,0,6.246-8.28,9.638,9.638,0,0,1,2.971-.462,9.824,9.824,0,0,1,9.711,8.42H63.755a1.4,1.4,0,1,0,0,2.807h9.713a9.835,9.835,0,0,1-1.994,4.67,13.917,13.917,0,0,0-13.07,3.3,1.4,1.4,0,1,0,1.913,2.053,11.2,11.2,0,0,1,11.1-2.463c.022.01.045.017.069.025a11.241,11.241,0,0,1,7.7,10.653,11.087,11.087,0,0,1-3.045,7.657,8.4,8.4,0,0,0-6.778-3.447,1.4,1.4,0,0,0,0,2.807,5.614,5.614,0,1,1,0,11.227c-.039,0-.069-.01-.108-.011a10.149,10.149,0,0,0-10.067-8.409H56.738a1.4,1.4,0,1,0,0,2.807h2.456a7.26,7.26,0,0,1,7.368,6.805q0,.017,0,.034v.045a6.989,6.989,0,0,1-4.21,6.562V65.159a1.4,1.4,0,1,0-2.807,0v5.614A6.971,6.971,0,0,1,55.9,69.746ZM80.6,83.4A2.807,2.807,0,1,1,83.4,80.6,2.807,2.807,0,0,1,80.6,83.4Z"/>
    <path id="Tracé_73" data-name="Tracé 73" d="M29.614,13.21A2.807,2.807,0,0,1,26.807,10.4,1.4,1.4,0,1,0,24,10.4a5.614,5.614,0,0,0,5.614,5.614,1.4,1.4,0,0,0,0-2.807Z" transform="translate(8.881 2.83)"/>
    <path id="Tracé_74" data-name="Tracé 74" d="M50.4,29.807a2.807,2.807,0,0,1,2.807,2.807,1.4,1.4,0,0,0,2.807,0A5.614,5.614,0,0,0,50.4,27a1.4,1.4,0,0,0,0,2.807Z" transform="translate(18.965 10.091)"/>
    <path id="Tracé_75" data-name="Tracé 75" d="M32.4,55A1.4,1.4,0,0,0,31,56.4v1.4a1.4,1.4,0,1,0,2.807,0V56.4A1.4,1.4,0,0,0,32.4,55Z" transform="translate(11.704 21.386)"/>
  </g>
</svg>
