<svg xmlns="http://www.w3.org/2000/svg" width="84.301" height="84.344" viewBox="0 0 84.301 84.344">
  <g id="expert" transform="translate(-2.043 -2.045)">
    <path id="Tracé_103" data-name="Tracé 103" d="M53.616,57.494a1.206,1.206,0,0,1-.861-.362,10.959,10.959,0,0,0-1.782-1.466A1.206,1.206,0,0,1,52.3,53.655a13.46,13.46,0,0,1,2.17,1.789,1.206,1.206,0,0,1-.861,2.05Z" transform="translate(9.962 10.58)"/>
    <path id="Tracé_104" data-name="Tracé 104" d="M63.905,76.155H18.186a1.206,1.206,0,0,1-1.206-1.206V65a13.217,13.217,0,0,1,13.2-13.2H51.861a1.206,1.206,0,0,1,0,2.411H30.182A10.8,10.8,0,0,0,19.391,65v8.741H62.7V65a10.61,10.61,0,0,0-.292-2.5,1.206,1.206,0,1,1,2.341-.574A13.054,13.054,0,0,1,65.111,65v9.952A1.206,1.206,0,0,1,63.905,76.155Z" transform="translate(3.072 10.234)"/>
    <path id="Tracé_105" data-name="Tracé 105" d="M39.094,52.305A12.636,12.636,0,1,1,51.729,39.67,12.636,12.636,0,0,1,39.094,52.305Zm0-22.86A10.224,10.224,0,1,0,49.318,39.67,10.224,10.224,0,0,0,39.094,29.445Z" transform="translate(5.022 5.14)"/>
    <path id="Tracé_106" data-name="Tracé 106" d="M50.893,73.585H27.406A1.206,1.206,0,0,1,26.2,72.38V65.5a1.206,1.206,0,0,1,2.411,0v5.676H49.687V65.5a1.206,1.206,0,0,1,2.411,0V72.38A1.206,1.206,0,0,1,50.893,73.585Z" transform="translate(4.969 12.803)"/>
    <path id="Tracé_107" data-name="Tracé 107" d="M70.719,34.068a1.206,1.206,0,0,1-.561-.139l-6.23-3.275L57.7,33.93a1.206,1.206,0,0,1-1.751-1.271l1.19-6.936L52.1,20.806a1.206,1.206,0,0,1,.667-2.057l6.965-1.013,3.114-6.311a1.255,1.255,0,0,1,2.163,0l3.114,6.311,6.965,1.013a1.206,1.206,0,0,1,.668,2.057l-5.04,4.912,1.19,6.936a1.206,1.206,0,0,1-1.189,1.409Zm-6.79-5.981a1.2,1.2,0,0,1,.561.139l4.629,2.433-.885-5.151a1.206,1.206,0,0,1,.348-1.068l3.744-3.65-5.175-.751a1.206,1.206,0,0,1-.908-.66L63.929,14.69l-2.314,4.684a1.206,1.206,0,0,1-.908.66l-5.175.751,3.745,3.65a1.206,1.206,0,0,1,.347,1.068l-.885,5.153,4.629-2.433a1.2,1.2,0,0,1,.561-.139Z" transform="translate(10.221 1.802)"/>
    <path id="Tracé_108" data-name="Tracé 108" d="M45.871,25.3a1.215,1.215,0,0,1-.561-.137l-6.23-3.278L32.85,25.16A1.206,1.206,0,0,1,31.1,23.89l1.19-6.938-5.04-4.912a1.206,1.206,0,0,1,.668-2.057l6.965-1.012L38,2.663a1.255,1.255,0,0,1,2.163,0l3.118,6.311,6.965,1.012a1.206,1.206,0,0,1,.668,2.057l-5.04,4.912,1.19,6.938A1.206,1.206,0,0,1,45.871,25.3Zm-6.79-5.98a1.206,1.206,0,0,1,.561.137l4.624,2.433-.885-5.153a1.206,1.206,0,0,1,.347-1.067l3.745-3.65-5.17-.746a1.206,1.206,0,0,1-.908-.661L39.08,5.921l-2.314,4.688a1.206,1.206,0,0,1-.908.661l-5.175.751,3.745,3.65a1.206,1.206,0,0,1,.347,1.067l-.88,5.153,4.629-2.433A1.206,1.206,0,0,1,39.08,19.32Z" transform="translate(5.11)"/>
    <path id="Tracé_109" data-name="Tracé 109" d="M21.021,34.067a1.206,1.206,0,0,1-.562-.139L14.23,30.654,8,33.926a1.206,1.206,0,0,1-1.749-1.271l1.19-6.936L2.4,20.8a1.206,1.206,0,0,1,.668-2.05l6.965-1.013,3.114-6.311a1.255,1.255,0,0,1,2.163,0l3.114,6.311,6.965,1.013a1.206,1.206,0,0,1,.667,2.057l-5.039,4.912,1.19,6.936a1.206,1.206,0,0,1-1.189,1.409Zm-6.79-5.981a1.2,1.2,0,0,1,.561.139l4.629,2.433-.885-5.151a1.206,1.206,0,0,1,.347-1.068l3.745-3.65-5.175-.751a1.206,1.206,0,0,1-.908-.66L14.23,14.689l-2.314,4.689a1.206,1.206,0,0,1-.908.66l-5.175.751,3.738,3.65a1.206,1.206,0,0,1,.354,1.068l-.885,5.148,4.629-2.433a1.2,1.2,0,0,1,.561-.139Z" transform="translate(0 1.803)"/>
  </g>
</svg>
