<svg xmlns="http://www.w3.org/2000/svg" width="84.354" height="66.025" viewBox="0 0 84.354 66.025">
  <g id="gratuit" transform="translate(0 -53.3)">
    <g id="Groupe_591" data-name="Groupe 591" transform="translate(0 78.988)">
      <g id="Groupe_590" data-name="Groupe 590" transform="translate(0 0)">
        <path id="Tracé_118" data-name="Tracé 118" d="M75.19,202.7H9.164A9.173,9.173,0,0,0,0,211.864v22.008a9.173,9.173,0,0,0,9.164,9.164H75.19a9.173,9.173,0,0,0,9.164-9.164V211.864A9.151,9.151,0,0,0,75.19,202.7Zm5.5,31.173a5.518,5.518,0,0,1-5.5,5.5H9.164a5.518,5.518,0,0,1-5.5-5.5V211.864a5.518,5.518,0,0,1,5.5-5.5H75.19a5.518,5.518,0,0,1,5.5,5.5Z" transform="translate(0 -202.7)"/>
      </g>
    </g>
    <g id="Groupe_593" data-name="Groupe 593" transform="translate(33.013 53.3)">
      <g id="Groupe_592" data-name="Groupe 592" transform="translate(0 0)">
        <path id="Tracé_119" data-name="Tracé 119" d="M201.164,53.3a9.164,9.164,0,1,0,9.164,9.164A9.173,9.173,0,0,0,201.164,53.3Zm0,14.684a5.5,5.5,0,1,1,5.5-5.5A5.518,5.518,0,0,1,201.164,67.984Z" transform="translate(-192 -53.3)"/>
      </g>
    </g>
    <g id="Groupe_595" data-name="Groupe 595" transform="translate(14.658 60.633)">
      <g id="Groupe_594" data-name="Groupe 594" transform="translate(0 0)">
        <path id="Tracé_120" data-name="Tracé 120" d="M106.734,96.492a1.827,1.827,0,0,0-2.6,0L85.792,114.838a1.831,1.831,0,0,0,1.307,3.129,1.753,1.753,0,0,0,1.29-.533l18.346-18.346A1.827,1.827,0,0,0,106.734,96.492Z" transform="translate(-85.25 -95.95)"/>
      </g>
    </g>
    <g id="Groupe_597" data-name="Groupe 597" transform="translate(47.67 60.633)">
      <g id="Groupe_596" data-name="Groupe 596" transform="translate(0 0)">
        <path id="Tracé_121" data-name="Tracé 121" d="M298.734,114.838,280.388,96.492a1.836,1.836,0,0,0-2.6,2.6l18.346,18.346a1.819,1.819,0,0,0,1.307.533,1.753,1.753,0,0,0,1.29-.533A1.826,1.826,0,0,0,298.734,114.838Z" transform="translate(-277.25 -95.95)"/>
      </g>
    </g>
    <g id="Groupe_598" data-name="Groupe 598" transform="translate(6.62 93.362)">
      <path id="Tracé_122" data-name="Tracé 122" d="M44.569,298.181a5.937,5.937,0,0,1-2.356-.464,6.161,6.161,0,0,1-1.926-1.272,6.1,6.1,0,0,1-1.307-1.891,5.754,5.754,0,0,1,0-4.608,6.1,6.1,0,0,1,1.307-1.891,6.523,6.523,0,0,1,1.926-1.29,6,6,0,0,1,2.356-.464,6.224,6.224,0,0,1,3.009.7,5.639,5.639,0,0,1,2.08,1.943.347.347,0,0,1,.034.292.419.419,0,0,1-.172.241l-1.891,1.2a.382.382,0,0,1-.275.052.5.5,0,0,1-.275-.155,4.149,4.149,0,0,0-1.1-.963,2.905,2.905,0,0,0-2.562-.12,3.139,3.139,0,0,0-.928.653,3.216,3.216,0,0,0-.619.946,2.949,2.949,0,0,0,0,2.252,2.927,2.927,0,0,0,.619.928,3.014,3.014,0,0,0,.928.653,2.716,2.716,0,0,0,1.118.241,3.223,3.223,0,0,0,1.186-.224,1.956,1.956,0,0,0,.928-.722.213.213,0,0,0,.017-.224.236.236,0,0,0-.224-.1H44.673a.422.422,0,0,1-.275-.1.363.363,0,0,1-.1-.275v-1.874a.422.422,0,0,1,.1-.275.363.363,0,0,1,.275-.1h5.416a.422.422,0,0,1,.275.1.388.388,0,0,1,.138.275,6.522,6.522,0,0,1,.034.653,6.313,6.313,0,0,1-.052.791,5.09,5.09,0,0,1-.619,2.012,5.862,5.862,0,0,1-1.29,1.6,6.2,6.2,0,0,1-1.823,1.066A5.8,5.8,0,0,1,44.569,298.181Z" transform="translate(-38.5 -286.3)"/>
      <path id="Tracé_123" data-name="Tracé 123" d="M119.334,298.72h-2.356a.421.421,0,0,1-.275-.1.363.363,0,0,1-.1-.275V287.578a.422.422,0,0,1,.1-.275.363.363,0,0,1,.275-.1h4.883a4.517,4.517,0,0,1,1.685.31,3.844,3.844,0,0,1,1.307.86,3.719,3.719,0,0,1,.843,1.307,4.365,4.365,0,0,1,.309,1.668,3.864,3.864,0,0,1-.12,1,4.288,4.288,0,0,1-.344.928,5.225,5.225,0,0,1-.516.791,3.031,3.031,0,0,1-.671.585.525.525,0,0,0-.172.224.289.289,0,0,0,.052.258c.4.533.825,1.066,1.255,1.616.447.55.825,1.066,1.186,1.53a.269.269,0,0,1,.052.275.2.2,0,0,1-.206.155H123.6a.918.918,0,0,1-.344-.086.684.684,0,0,1-.275-.206c-.327-.447-.671-.894-1-1.341s-.653-.911-.98-1.376a.761.761,0,0,0-.258-.206.84.84,0,0,0-.327-.086h-.344a.35.35,0,0,0-.258.1.363.363,0,0,0-.1.275v2.562a.422.422,0,0,1-.1.275A.487.487,0,0,1,119.334,298.72Zm.757-6.207h1.651a1.128,1.128,0,0,0,.4-.069,1.221,1.221,0,0,0,.378-.224,1.122,1.122,0,0,0,.275-.361,1.257,1.257,0,0,0,.1-.516,1.776,1.776,0,0,0-.052-.378,1.472,1.472,0,0,0-.189-.413.952.952,0,0,0-.361-.327,1.134,1.134,0,0,0-.55-.138H120.09a.35.35,0,0,0-.258.1.363.363,0,0,0-.1.275v1.668a.422.422,0,0,0,.1.275A.35.35,0,0,0,120.09,292.513Z" transform="translate(-103.171 -287.045)"/>
      <path id="Tracé_124" data-name="Tracé 124" d="M181.308,287.644a.673.673,0,0,1,.206-.241.566.566,0,0,1,.327-.1h2.2a.555.555,0,0,1,.309.1.537.537,0,0,1,.206.241l4.591,10.695a.324.324,0,0,1-.361.447h-2.682a.566.566,0,0,1-.327-.1.734.734,0,0,1-.224-.241l-.43-.946a.734.734,0,0,0-.224-.241.555.555,0,0,0-.309-.1h-3.318a.566.566,0,0,0-.327.1.537.537,0,0,0-.206.241l-.447.946a.673.673,0,0,1-.206.241.555.555,0,0,1-.309.1h-2.7a.759.759,0,0,1-.172-.034.374.374,0,0,1-.138-.086.218.218,0,0,1-.069-.155.384.384,0,0,1,.052-.224Zm.928,6.843h1.393a.237.237,0,0,0,.224-.1.206.206,0,0,0,0-.241c-.1-.258-.224-.567-.378-.929-.155-.344-.275-.671-.413-.98-.034-.086-.086-.138-.138-.138s-.1.052-.138.138L182,294.143a.293.293,0,0,0,0,.241A.289.289,0,0,0,182.236,294.487Z" transform="translate(-152.938 -287.128)"/>
      <path id="Tracé_125" data-name="Tracé 125" d="M250.683,290.171h-2.2a.422.422,0,0,0-.275.1.363.363,0,0,0-.1.275v7.875a.422.422,0,0,1-.1.275.363.363,0,0,1-.275.1H245.37a.422.422,0,0,1-.275-.1.363.363,0,0,1-.1-.275v-7.858a.422.422,0,0,0-.1-.275.363.363,0,0,0-.275-.1h-2.235a.422.422,0,0,1-.275-.1.363.363,0,0,1-.1-.275v-2.132a.422.422,0,0,1,.1-.275.363.363,0,0,1,.275-.1h8.3a.355.355,0,0,1,.378.378v2.132a.422.422,0,0,1-.1.275A.437.437,0,0,1,250.683,290.171Z" transform="translate(-207.01 -287.128)"/>
      <path id="Tracé_126" data-name="Tracé 126" d="M301.717,287.678a.422.422,0,0,1,.1-.275.35.35,0,0,1,.258-.1h2.356a.35.35,0,0,1,.258.1.363.363,0,0,1,.1.275v6.362a2.484,2.484,0,0,0,.189,1.014,1.88,1.88,0,0,0,.481.636,1.791,1.791,0,0,0,.619.327,2.028,2.028,0,0,0,.6.086,2.812,2.812,0,0,0,.6-.086,1.79,1.79,0,0,0,.619-.327,1.88,1.88,0,0,0,.481-.636,2.229,2.229,0,0,0,.189-1.014v-6.362a.422.422,0,0,1,.1-.275.35.35,0,0,1,.258-.1h2.442a.35.35,0,0,1,.258.1.363.363,0,0,1,.1.275v6.362a5.464,5.464,0,0,1-.361,2.029,4.4,4.4,0,0,1-1.014,1.565,4.677,4.677,0,0,1-1.582,1,6.075,6.075,0,0,1-4.127,0,4.516,4.516,0,0,1-1.582-1,4.25,4.25,0,0,1-1.014-1.565,5.464,5.464,0,0,1-.361-2.029v-6.362Z" transform="translate(-256.445 -287.128)"/>
      <path id="Tracé_127" data-name="Tracé 127" d="M377.334,298.8h-2.356a.355.355,0,0,1-.378-.378V287.678a.422.422,0,0,1,.1-.275.363.363,0,0,1,.275-.1h2.356a.35.35,0,0,1,.258.1.363.363,0,0,1,.1.275v10.746a.422.422,0,0,1-.1.275A.435.435,0,0,1,377.334,298.8Z" transform="translate(-316.811 -287.128)"/>
      <path id="Tracé_128" data-name="Tracé 128" d="M407.883,290.171h-2.2a.422.422,0,0,0-.275.1.363.363,0,0,0-.1.275v7.875a.422.422,0,0,1-.1.275.363.363,0,0,1-.275.1H402.57a.422.422,0,0,1-.275-.1.363.363,0,0,1-.1-.275v-7.858a.421.421,0,0,0-.1-.275.363.363,0,0,0-.275-.1h-2.235a.422.422,0,0,1-.275-.1.363.363,0,0,1-.1-.275v-2.132a.421.421,0,0,1,.1-.275.363.363,0,0,1,.275-.1h8.3a.355.355,0,0,1,.378.378v2.132a.422.422,0,0,1-.1.275A.438.438,0,0,1,407.883,290.171Z" transform="translate(-337.181 -287.128)"/>
    </g>
  </g>
</svg>
