<svg xmlns="http://www.w3.org/2000/svg" width="86.177" height="81.692" viewBox="0 0 86.177 81.692">
  <g id="nouveau-site-web" transform="translate(0 -13.455)">
    <g id="Groupe_589" data-name="Groupe 589" transform="translate(0 13.455)">
      <path id="Tracé_97" data-name="Tracé 97" d="M57.45,265.162,56.1,271.949l-2.151-6.976a1.666,1.666,0,0,0-3.221.136l-2.118,6.846-1.348-6.815a1.667,1.667,0,0,0-3.27.647s2.459,12.4,2.486,12.474a1.95,1.95,0,0,0,1.835,1.291h.022a1.948,1.948,0,0,0,1.825-1.331l.011-.034,2.185-7.063,2.178,7.066c.007.024.015.048.024.072a1.949,1.949,0,0,0,1.833,1.29h.022a1.947,1.947,0,0,0,1.823-1.331c.022-.066,2.483-12.408,2.483-12.408a1.667,1.667,0,0,0-3.27-.651Z" transform="translate(-36.632 -222.068)"/>
      <path id="Tracé_98" data-name="Tracé 98" d="M186.862,265.812a1.667,1.667,0,0,0-3.27-.651l-1.352,6.792-2.149-6.981a1.666,1.666,0,0,0-3.221.136l-2.119,6.841-1.347-6.81a1.667,1.667,0,0,0-3.27.647s2.459,12.4,2.487,12.474a1.949,1.949,0,0,0,1.833,1.291h.022a1.946,1.946,0,0,0,1.823-1.33l.011-.034,2.188-7.063,2.175,7.065c.007.024.015.048.024.072a1.95,1.95,0,0,0,1.835,1.291h.022a1.948,1.948,0,0,0,1.825-1.331C184.4,278.154,186.862,265.812,186.862,265.812Z" transform="translate(-141.747 -222.067)"/>
      <path id="Tracé_99" data-name="Tracé 99" d="M300.583,279.55h.022a1.949,1.949,0,0,0,1.833-1.291c.008-.024.016-.048.024-.072l2.175-7.065,2.188,7.063.011.034a1.946,1.946,0,0,0,1.823,1.331h.022a1.949,1.949,0,0,0,1.833-1.291c.028-.078,2.487-12.474,2.487-12.474a1.667,1.667,0,0,0-3.27-.647l-1.347,6.81-2.119-6.841a1.666,1.666,0,0,0-3.221-.136l-2.147,6.971-1.35-6.783a1.667,1.667,0,0,0-3.27.651s2.461,12.342,2.483,12.408A1.945,1.945,0,0,0,300.583,279.55Z" transform="translate(-246.864 -222.066)"/>
      <path id="Tracé_100" data-name="Tracé 100" d="M212.141,393.844a1.667,1.667,0,0,0,0,3.334h0a1.667,1.667,0,0,0,0-3.334Z" transform="translate(-175.391 -330.438)"/>
      <path id="Tracé_101" data-name="Tracé 101" d="M85.689,86.706l-7.9-7.9,2.937-2.937a1.667,1.667,0,0,0-1.049-2.841L73.5,72.545V49.773a3.849,3.849,0,0,0-3.847-3.843H61.51a25.672,25.672,0,1,0-49.525,0H3.842A3.847,3.847,0,0,0,0,49.773V76.347a3.849,3.849,0,0,0,3.842,3.847H29.291a1.667,1.667,0,1,0,0-3.334H3.842a.518.518,0,0,1-.509-.514V49.773a.516.516,0,0,1,.509-.509H69.653a.518.518,0,0,1,.513.509V72.284l-5.488-.429a1.667,1.667,0,0,0-1.792,1.792l.251,3.214H44.209a1.667,1.667,0,1,0,0,3.334H63.4l.661,8.451A1.667,1.667,0,0,0,66.9,89.695l2.937-2.937,7.9,7.9a1.667,1.667,0,0,0,2.357,0l5.595-5.595a1.667,1.667,0,0,0,0-2.357ZM15.463,45.93a22.157,22.157,0,0,1-.992-5.134h6.994a42.381,42.381,0,0,0,.5,5.134Zm6-8.467H14.472A22.179,22.179,0,0,1,17.3,28.149a37.665,37.665,0,0,0,5.17,1.587A41.414,41.414,0,0,0,21.466,37.463ZM19.211,25.308a22.479,22.479,0,0,1,8.01-6.381,22.31,22.31,0,0,0-1.573,2.4,29.03,29.03,0,0,0-2.279,5.195,35.691,35.691,0,0,1-4.158-1.216ZM35.083,45.93H25.346A38.705,38.705,0,0,1,24.8,40.8H35.083Zm0-8.467H24.8a37.811,37.811,0,0,1,.957-7.072,64.984,64.984,0,0,0,9.326.836Zm0-9.574a62.241,62.241,0,0,1-8.391-.722c1.865-5.349,4.915-9.2,8.391-10.15Zm3.334-10.872c3.457.943,6.492,4.759,8.36,10.061a61.275,61.275,0,0,1-8.36.8ZM48.15,45.93H38.417V40.8H48.7a38.714,38.714,0,0,1-.548,5.134Zm-9.733-8.467v-6.25a64.062,64.062,0,0,0,9.3-.917,37.756,37.756,0,0,1,.98,7.167H38.417Zm9.435-16.134a22.312,22.312,0,0,0-1.573-2.4,22.478,22.478,0,0,1,7.876,6.216A33.825,33.825,0,0,1,50.09,26.4,28.937,28.937,0,0,0,47.852,21.329Zm10.18,24.6h-6.5a42.3,42.3,0,0,0,.5-5.134h6.994A22.171,22.171,0,0,1,58.033,45.93Zm-6-8.467A41.363,41.363,0,0,0,51,29.6a35.892,35.892,0,0,0,5.091-1.645,22.181,22.181,0,0,1,2.937,9.5ZM78.916,91.122l-7.9-7.9a1.667,1.667,0,0,0-2.357,0L67.1,84.779l-.739-9.448,9.448.739-1.558,1.558a1.667,1.667,0,0,0,0,2.357l7.9,7.9Z" transform="translate(0 -13.455)"/>
    </g>
  </g>
</svg>
