<svg xmlns="http://www.w3.org/2000/svg" width="77.452" height="84.245" viewBox="0 0 77.452 84.245">
  <g id="share-experience" transform="translate(-20.648)">
    <path id="Tracé_110" data-name="Tracé 110" d="M170.395,172.974a6.229,6.229,0,0,1-.452-1.594,16.324,16.324,0,0,0-1.172-4.147,1.234,1.234,0,1,0-2.265.979,13.854,13.854,0,0,1,.995,3.52,8.715,8.715,0,0,0,.63,2.224l2.678,6.175a7.694,7.694,0,0,1-6.988,10.754,11.013,11.013,0,0,0,1.065-4.735V174.8a2.506,2.506,0,0,0-2.454-2.519l-6.98-.184a10.9,10.9,0,0,1-6.555-2.428l-.459-.374a2.057,2.057,0,0,0-2.9.31,12.853,12.853,0,0,0-2.808,8v8.545a11.014,11.014,0,0,0,1.065,4.735,7.694,7.694,0,0,1-6.988-10.754l2.678-6.175a8.718,8.718,0,0,0,.63-2.225,13.835,13.835,0,0,1,23.6-7.686,1.234,1.234,0,1,0,1.766-1.723,16.3,16.3,0,0,0-27.812,9.057,6.228,6.228,0,0,1-.452,1.594l-2.678,6.175a10.167,10.167,0,0,0,9.266,14.209,10.531,10.531,0,0,0,1.5-.11,11.16,11.16,0,0,0,3.12,2.584v2.381l-6.308,2.531a11.539,11.539,0,0,0-7.276,10.759v3.015a1.234,1.234,0,1,0,2.467,0V211.5a9.083,9.083,0,0,1,5.727-8.469l5.678-2.278a5.214,5.214,0,0,0,9.854,0l5.679,2.278c.149.06.306.129.5.218a1.234,1.234,0,1,0,1.05-2.233c-.234-.11-.433-.2-.628-.275l-6.308-2.531v-2.206a11.15,11.15,0,0,0,3.449-2.759,10.5,10.5,0,0,0,1.5.11,10.167,10.167,0,0,0,9.266-14.209Zm-14.006,26.074a2.748,2.748,0,0,1-5.5,0v-2.208a11.028,11.028,0,0,0,5.5.084Zm-2.584-4.284a8.623,8.623,0,0,1-8.613-8.613v-8.545a10.38,10.38,0,0,1,2.015-6.133l.132.108a13.378,13.378,0,0,0,8.048,2.98l6.98.184a.052.052,0,0,1,.051.052V186.15A8.623,8.623,0,0,1,153.806,194.763Z" transform="translate(-94.438 -131.506)"/>
    <path id="Tracé_111" data-name="Tracé 111" d="M343.239,442.648a1.233,1.233,0,0,0-.294,1.72,9.078,9.078,0,0,1,1.679,5.272v3.015a1.234,1.234,0,0,0,2.467,0v-3.015a11.53,11.53,0,0,0-2.133-6.7A1.233,1.233,0,0,0,343.239,442.648Z" transform="translate(-269.09 -369.643)"/>
    <path id="Tracé_112" data-name="Tracé 112" d="M36.046,103.624a10.021,10.021,0,0,0-9.432-.963,9.2,9.2,0,0,0-5.195,5.161,10.5,10.5,0,0,0-.745,4.662,1.234,1.234,0,0,0,2.461-.179,8.056,8.056,0,0,1,.578-3.573,6.722,6.722,0,0,1,3.8-3.771,7.589,7.589,0,0,1,7.143.7,7.383,7.383,0,0,1,1.879,10.346l-.03.044-4.145,6.453a1.235,1.235,0,0,0-.2.667v.562H31.73v-6.176a2.463,2.463,0,0,0,2.239-2.449v-2.025a2.463,2.463,0,0,0-2.46-2.46H29.484a2.463,2.463,0,0,0-2.46,2.46v2.025a2.463,2.463,0,0,0,2.239,2.449v6.177H28.83v-.562a1.235,1.235,0,0,0-.2-.667l-3.772-5.873a1.234,1.234,0,1,0-2.076,1.334l3.577,5.568v.884a1.771,1.771,0,0,0,.282.958v1.278a3.6,3.6,0,0,0,3.6,3.6h.505a3.6,3.6,0,0,0,3.6-3.6v-1.278a1.771,1.771,0,0,0,.282-.958v-.884l3.936-6.127a9.851,9.851,0,0,0-2.519-13.783ZM31.5,113.084l.008,2.017-.947,0c-.022,0-.044,0-.066,0s-.051,0-.076,0l-.93,0-.007-2.017Zm.38,13.57a1.133,1.133,0,0,1-1.132,1.132h-.505a1.133,1.133,0,0,1-1.132-1.132V126.2h2.77Z" transform="translate(0 -85.148)"/>
    <path id="Tracé_113" data-name="Tracé 113" d="M199.391,21.906a10.953,10.953,0,1,0-10.953-10.953A10.965,10.965,0,0,0,199.391,21.906Zm0-19.438a8.485,8.485,0,1,1-8.486,8.485A8.5,8.5,0,0,1,199.391,2.468Z" transform="translate(-140.188)"/>
    <path id="Tracé_114" data-name="Tracé 114" d="M231.353,51.64a1.234,1.234,0,0,0,1.745,0l5.764-5.764a1.234,1.234,0,1,0-1.745-1.745l-4.891,4.891-.83-.83a1.234,1.234,0,1,0-1.745,1.745Z" transform="translate(-174.32 -36.57)"/>
    <path id="Tracé_115" data-name="Tracé 115" d="M381.722,109.688a1.913,1.913,0,0,0-1.554-1.31l-5.127-.745-2.293-4.646a1.925,1.925,0,0,0-3.452,0L367,107.632l-5.127.745a1.925,1.925,0,0,0-1.067,3.283l3.71,3.617-.876,5.107a1.925,1.925,0,0,0,2.793,2.029L371.022,120l4.586,2.411a1.925,1.925,0,0,0,2.793-2.029l-.876-5.107,3.71-3.617A1.913,1.913,0,0,0,381.722,109.688Zm-6.124,4.021a1.925,1.925,0,0,0-.554,1.7l.738,4.3-3.865-2.032a1.925,1.925,0,0,0-1.792,0l-3.865,2.032.738-4.3a1.924,1.924,0,0,0-.554-1.7l-3.127-3.048,4.322-.628a1.924,1.924,0,0,0,1.449-1.053l1.933-3.916,1.932,3.915a1.924,1.924,0,0,0,1.45,1.053l4.321.628Z" transform="translate(-283.717 -85.148)"/>
    <path id="Tracé_116" data-name="Tracé 116" d="M330.558,84.1A35.916,35.916,0,0,1,336,86.776a1.233,1.233,0,0,0,.877,2.3l2.337-.7a1.233,1.233,0,0,0,.881-1.182V84.666a1.234,1.234,0,1,0-2.467,0v.213a38.4,38.4,0,0,0-6.176-3.081,1.234,1.234,0,0,0-.9,2.3Z" transform="translate(-258.274 -68.272)"/>
    <path id="Tracé_117" data-name="Tracé 117" d="M130.4,82.3a1.228,1.228,0,0,0,.645-.183,36.081,36.081,0,0,1,3.577-1.927l-.064.24a1.234,1.234,0,1,0,2.384.637l.753-2.819a1.233,1.233,0,0,0-.794-1.486L134.639,76a1.233,1.233,0,0,0-1.256,2.053,38.556,38.556,0,0,0-3.631,1.97A1.234,1.234,0,0,0,130.4,82.3Z" transform="translate(-90.666 -63.44)"/>
  </g>
</svg>
