<svg xmlns="http://www.w3.org/2000/svg" viewBox="0 0 72 72">
<g>
	<path d="M44.3,34.9L44.3,34.9c3.9,0,7.1-3.2,7.1-7.1V7.3c0-3.9-3.2-7.1-7.1-7.1c-3.9,0-7.1,3.2-7.1,7.1v20.6
		C37.3,31.8,40.4,34.9,44.3,34.9z M40.1,7.3c0-2.3,1.9-4.2,4.3-4.2c2.3,0,4.2,1.9,4.2,4.2v20.6c0,2.3-1.9,4.2-4.2,4.2h0
		c-2.3,0-4.2-1.9-4.2-4.2V7.3z"/>
	<path d="M27.7,37.1L27.7,37.1c-3.9,0-7.1,3.2-7.1,7.1v20.6c0,3.9,3.2,7.1,7.1,7.1c3.9,0,7.1-3.2,7.1-7.1V44.1
		C34.7,40.2,31.6,37.1,27.7,37.1z M31.9,64.7c0,2.3-1.9,4.2-4.3,4.2c-2.3,0-4.2-1.9-4.2-4.2V44.1c0-2.3,1.9-4.2,4.2-4.2h0
		c2.3,0,4.2,1.9,4.2,4.2V64.7z"/>
	<path d="M27.7,34.7c3.9,0,7-3.2,7-7v0c0-3.9-3.2-7-7-7H7c-3.9,0-7,3.2-7,7.1c0,3.9,3.2,7,7,7H27.7z M2.8,27.6
		c0-2.3,1.9-4.2,4.2-4.2h20.6c2.3,0,4.2,1.9,4.2,4.2v0h0c0,2.3-1.9,4.2-4.2,4.2H7C4.7,31.9,2.8,30,2.8,27.6z"/>
	<path d="M56.3,34.6h6.1c4.1,0,7.5-3.4,7.5-7.5v-1.4c0-4.1-3.4-7.5-7.5-7.5c-4.1,0-7.5,3.4-7.5,7.5v7.4C54.9,34,55.5,34.6,56.3,34.6
		z M57.7,25.8c0-2.6,2.1-4.7,4.7-4.7c2.6,0,4.7,2.1,4.7,4.7v1.4c0,2.6-2.1,4.7-4.7,4.7h-4.7V25.8z"/>
	<path d="M15.7,37.4H9.6c-4.1,0-7.5,3.4-7.5,7.5v1.4c0,4.1,3.4,7.5,7.5,7.5c4.1,0,7.5-3.4,7.5-7.5v-7.4C17.1,38,16.5,37.4,15.7,37.4
		z M14.3,46.2c0,2.6-2.1,4.7-4.7,4.7c-2.6,0-4.7-2.1-4.7-4.7v-1.4c0-2.6,2.1-4.7,4.7-4.7h4.7V46.2z"/>
	<path d="M26.2,17.9h6.1c0.8,0,1.4-0.6,1.4-1.4V9c0-4.1-3.4-7.5-7.5-7.5c-4.1,0-7.5,3.4-7.5,7.5v1.4C18.7,14.5,22.1,17.9,26.2,17.9z
		 M21.5,9c0-2.6,2.1-4.7,4.7-4.7c2.6,0,4.7,2.1,4.7,4.7v6h-4.7c-2.6,0-4.7-2.1-4.7-4.7V9z"/>
	<path d="M45.8,54.1h-6.1c-0.8,0-1.4,0.6-1.4,1.4V63c0,4.1,3.4,7.5,7.5,7.5c4.1,0,7.5-3.4,7.5-7.5v-1.4
		C53.3,57.5,49.9,54.1,45.8,54.1z M50.5,63c0,2.6-2.1,4.7-4.7,4.7c-2.6,0-4.7-2.1-4.7-4.7v-6h4.7c2.6,0,4.7,2.1,4.7,4.7V63z"/>
	<path d="M65,37.3H44.3c-3.9,0-7,3.2-7,7.1c0,3.9,3.2,7,7,7h4.2c0.8,0,1.4-0.6,1.4-1.4c0-0.8-0.6-1.4-1.4-1.4h-4.2
		c-2.3,0-4.2-1.9-4.2-4.2c0-2.3,1.9-4.2,4.2-4.2H65c2.3,0,4.2,1.9,4.2,4.2c0,2.3-1.9,4.2-4.2,4.2h-3.7c-0.8,0-1.4,0.6-1.4,1.4
		c0,0.8,0.6,1.4,1.4,1.4H65c3.9,0,7-3.2,7-7.1C72,40.5,68.8,37.3,65,37.3z"/>
	<path d="M55.7,48.8c-0.5-0.3-1.2-0.3-1.7,0.1c-0.4,0.4-0.6,1-0.4,1.5c0.2,0.6,0.7,1,1.3,1c0.6,0,1.1-0.3,1.3-0.9
		C56.4,49.9,56.2,49.2,55.7,48.8z"/>
</g>
</svg>