<svg xmlns="http://www.w3.org/2000/svg" width="84.354" height="84.245" viewBox="0 0 84.354 84.245">
  <g id="Solution" transform="translate(-2 -2.077)">
    <path id="Tracé_56" data-name="Tracé 56" d="M66.245,28.334,57.3,19.392a1.406,1.406,0,0,0-2.39.792A5.624,5.624,0,1,1,48.55,13.82a1.406,1.406,0,0,0,.792-2.39L40.4,2.489a1.406,1.406,0,0,0-1.988,0l-7.765,7.762A8.435,8.435,0,1,0,20.318,20.577l-7.756,7.756a1.406,1.406,0,0,0,0,1.988l7.759,7.769A8.435,8.435,0,0,0,19.3,54.038l-3.283,9.469a7.029,7.029,0,0,0,.242,6.2l4.935,11.669a1.125,1.125,0,0,0,.063.131,4.292,4.292,0,0,1,.524,2.065v1.35a1.406,1.406,0,0,0,2.812,0v-1.35a7.117,7.117,0,0,0-.844-3.352L18.812,68.546a1.265,1.265,0,0,0-.067-.141,4.268,4.268,0,0,1-.124-3.858l3.439-9.9c.148,0,.292.021.441.021a8.42,8.42,0,0,0,8.142-6.245L33.028,50.8V65.234a1.406,1.406,0,0,0,2.812,0V45.552a4.218,4.218,0,0,1,8.435,0V62.578a12.723,12.723,0,0,0,1.336,5.659l.515,1.032a9.878,9.878,0,0,1,0,8.8l-1.406,2.812a4.237,4.237,0,0,0-.444,1.887v2.148a1.406,1.406,0,1,0,2.812,0V82.769a1.433,1.433,0,0,1,.141-.628l1.406-2.812a12.7,12.7,0,0,0,0-11.316l-.515-1.032a9.89,9.89,0,0,1-.966-3.227,9.812,9.812,0,0,0,6.963,2.886,4.218,4.218,0,0,0,4.218-4.218V54.409a8.427,8.427,0,0,0,.153-16.321l7.758-7.769a1.406,1.406,0,0,0,0-1.985ZM54.116,63.828a7.038,7.038,0,0,1-7.03-7.029V49.488l1.074-1.074a8.413,8.413,0,0,0,7.361,6.214v7.794A1.406,1.406,0,0,1,54.116,63.828Zm.2-25.541a1.406,1.406,0,0,0,1.2,2.39,5.624,5.624,0,1,1-4.78,4.78,1.406,1.406,0,0,0-2.39-1.2l-1.258,1.261a7.03,7.03,0,1,0-14.059.031v1.274l-2.577-2.577a1.406,1.406,0,0,0-2.39,1.2,5.624,5.624,0,1,1-4.78-4.78,1.406,1.406,0,0,0,1.2-2.39l-8.937-8.949,8.947-8.942a1.406,1.406,0,0,0-1.2-2.39,5.624,5.624,0,0,1-4.763-9.538,5.764,5.764,0,0,1,7.952,0,5.624,5.624,0,0,1,1.586,4.763,1.406,1.406,0,0,0,2.39,1.2L39.41,5.475l6.3,6.3A8.435,8.435,0,1,0,56.957,23.023l6.3,6.3Z" transform="translate(4.12)"/>
    <path id="Tracé_57" data-name="Tracé 57" d="M63.841,23.812H55.406a1.406,1.406,0,1,1,0-2.812h8.435a1.406,1.406,0,0,1,0,2.812Z" transform="translate(21.107 7.681)"/>
    <path id="Tracé_58" data-name="Tracé 58" d="M54.325,13.53a1.406,1.406,0,0,1-.7-2.623l7.311-4.218a1.406,1.406,0,1,1,1.406,2.435l-7.311,4.218a1.4,1.4,0,0,1-.7.188Z" transform="translate(20.668 1.795)"/>
    <path id="Tracé_59" data-name="Tracé 59" d="M61.631,39.53a1.4,1.4,0,0,1-.7-.188l-7.311-4.218a1.406,1.406,0,1,1,1.406-2.435l7.311,4.218a1.406,1.406,0,0,1-.7,2.623Z" transform="translate(20.666 12.349)"/>
    <path id="Tracé_60" data-name="Tracé 60" d="M11.841,23.812H3.406a1.406,1.406,0,1,1,0-2.812h8.435a1.406,1.406,0,1,1,0,2.812Z" transform="translate(0 7.681)"/>
    <path id="Tracé_61" data-name="Tracé 61" d="M12.6,13.53a1.4,1.4,0,0,1-.7-.188L4.584,9.123A1.406,1.406,0,1,1,5.99,6.688L13.3,10.906a1.406,1.406,0,0,1-.7,2.623Z" transform="translate(0.763 1.795)"/>
    <path id="Tracé_62" data-name="Tracé 62" d="M5.292,39.53a1.406,1.406,0,0,1-.7-2.623L11.9,32.688a1.406,1.406,0,1,1,1.406,2.435L5.995,39.341a1.4,1.4,0,0,1-.7.188Z" transform="translate(0.766 12.349)"/>
  </g>
</svg>
