<svg xmlns="http://www.w3.org/2000/svg" width="78.5" height="78.499" viewBox="0 0 78.5 78.499">
  <g id="Startup_rocket" data-name="Startup rocket" transform="translate(-2 -2)">
    <path id="Tracé_76" data-name="Tracé 76" d="M79.191,67.416H76.575V24.242A6.549,6.549,0,0,0,70.033,17.7H50.178A24.649,24.649,0,0,0,43.127,3.336l-.952-.952a1.308,1.308,0,0,0-1.85,0l-.952.952A24.649,24.649,0,0,0,32.322,17.7H12.467a6.549,6.549,0,0,0-6.542,6.542V67.416H3.308A1.308,1.308,0,0,0,2,68.725v2.617A9.169,9.169,0,0,0,11.158,80.5H71.341A9.169,9.169,0,0,0,80.5,71.341V68.725A1.308,1.308,0,0,0,79.191,67.416ZM53.226,59.474a3.6,3.6,0,0,1-.2-1.215,3.925,3.925,0,0,1,3.925-3.925,1.308,1.308,0,0,0,1.308-1.308,5.233,5.233,0,1,1,10.467,0v9.158H48.155a2.608,2.608,0,0,1,2.253-1.308,2.486,2.486,0,0,1,1.038.22,1.308,1.308,0,0,0,1.781-1.621Zm15.5-12.284A7.837,7.837,0,0,0,55.732,51.83a6.552,6.552,0,0,0-5.324,6.428,5.233,5.233,0,0,0-5.048,3.925H37.139a5.233,5.233,0,0,0-5.048-3.925,6.552,6.552,0,0,0-5.324-6.428A7.837,7.837,0,0,0,13.775,47.19V25.55H32.092v2.721a9.158,9.158,0,0,0-7.85,9.054,1.308,1.308,0,0,0,1.308,1.308h6.542v1.308A1.308,1.308,0,0,0,33.4,41.25h2.982l1.01,3.03a1.308,1.308,0,0,0,1.242.895h5.233a1.308,1.308,0,0,0,1.242-.9l1.01-3.03H49.1a1.308,1.308,0,0,0,1.308-1.308V38.633H56.95a1.308,1.308,0,0,0,1.308-1.308,9.158,9.158,0,0,0-7.85-9.054V25.55H68.725Zm-54.95,5.835a5.233,5.233,0,1,1,10.467,0,1.308,1.308,0,0,0,1.308,1.308,3.925,3.925,0,0,1,3.925,3.925,3.6,3.6,0,0,1-.2,1.215,1.308,1.308,0,0,0,1.781,1.621,2.486,2.486,0,0,1,1.038-.22,2.607,2.607,0,0,1,2.253,1.308H13.775ZM36.883,11.356a9.14,9.14,0,0,0,8.734,0,22.137,22.137,0,0,1,2.174,9.557v17.72H34.708V20.913a22.137,22.137,0,0,1,2.174-9.557ZM50.408,30.914a6.559,6.559,0,0,1,5.1,5.1h-5.1ZM43.36,41.25l-.437,1.308H39.577L39.14,41.25ZM32.092,36.016h-5.1a6.559,6.559,0,0,1,5.1-5.1ZM41.222,5.186l.027-.027.027.027a22.341,22.341,0,0,1,3.076,3.871,6.682,6.682,0,0,1-6.207,0,22.341,22.341,0,0,1,3.076-3.871ZM8.542,24.242a3.925,3.925,0,0,1,3.925-3.925H32.12c0,.2-.029.392-.029.6v2.02H12.467a1.308,1.308,0,0,0-1.308,1.308v39.25A1.308,1.308,0,0,0,12.467,64.8H70.033a1.308,1.308,0,0,0,1.308-1.308V24.242a1.308,1.308,0,0,0-1.308-1.308H50.408v-2.02c0-.2-.025-.392-.029-.6H70.033a3.925,3.925,0,0,1,3.925,3.925V67.416H8.542ZM34.708,70.033H47.792v1.308a1.308,1.308,0,0,1-1.308,1.308H36.017a1.308,1.308,0,0,1-1.308-1.308Zm43.175,1.308a6.55,6.55,0,0,1-6.542,6.542H11.158a6.549,6.549,0,0,1-6.542-6.542V70.033H32.092v1.308a3.925,3.925,0,0,0,3.925,3.925H46.483a3.925,3.925,0,0,0,3.925-3.925V70.033H77.883Z"/>
    <path id="Tracé_77" data-name="Tracé 77" d="M31.617,31.467h2.617a1.308,1.308,0,0,0,1.29-1.092l1.308-7.85A1.308,1.308,0,0,0,35.542,21H30.308a1.308,1.308,0,0,0-1.29,1.524l1.308,7.85A1.308,1.308,0,0,0,31.617,31.467ZM34,23.617l-.871,5.233h-.4l-.871-5.233Z" transform="translate(8.325 5.858)"/>
    <path id="Tracé_78" data-name="Tracé 78" d="M32.308,20.85a1.308,1.308,0,0,0,1.308-1.308V14.308a1.308,1.308,0,1,0-2.617,0v5.233A1.308,1.308,0,0,0,32.308,20.85Z" transform="translate(8.942 3.392)"/>
    <path id="Tracé_79" data-name="Tracé 79" d="M33.233,36A5.233,5.233,0,0,0,28,41.233c0,2.539,3.548,6.623,4.26,7.416a1.308,1.308,0,0,0,1.947,0c.712-.793,4.26-4.876,4.26-7.416A5.233,5.233,0,0,0,33.233,36Zm0,9.748c-1.391-1.743-2.617-3.7-2.617-4.515a2.617,2.617,0,0,1,5.233,0C35.85,42.067,34.621,44.014,33.233,45.748Z" transform="translate(8.017 10.483)"/>
  </g>
</svg>
