<svg width="30" height="33" viewBox="0 0 30 33" fill="none" xmlns="http://www.w3.org/2000/svg">
<g clip-path="url(#clip0_203_395)">
<path d="M16.2498 1.33772C16.2498 0.982986 16.3815 0.642777 16.616 0.39194C16.8504 0.141102 17.1683 0.000182885 17.4998 0.000182885C20.8139 0.00407727 23.9912 1.41452 26.3346 3.92205C28.6781 6.42958 29.9962 9.82941 29.9998 13.3756C29.9998 13.7303 29.8681 14.0705 29.6337 14.3214C29.3993 14.5722 29.0813 14.7131 28.7498 14.7131C28.4183 14.7131 28.1004 14.5722 27.8659 14.3214C27.6315 14.0705 27.4998 13.7303 27.4998 13.3756C27.4968 10.5387 26.4423 7.81885 24.5676 5.81284C22.6929 3.80683 20.1511 2.67845 17.4998 2.67527C17.1683 2.67527 16.8504 2.53435 16.616 2.28351C16.3815 2.03267 16.2498 1.69246 16.2498 1.33772ZM17.4998 8.02543C18.8259 8.02543 20.0977 8.58911 21.0354 9.59246C21.973 10.5958 22.4998 11.9566 22.4998 13.3756C22.4998 13.7303 22.6315 14.0705 22.8659 14.3214C23.1004 14.5722 23.4183 14.7131 23.7498 14.7131C24.0814 14.7131 24.3993 14.5722 24.6337 14.3214C24.8681 14.0705 24.9998 13.7303 24.9998 13.3756C24.9978 11.2478 24.207 9.2078 22.8009 7.70324C21.3948 6.19867 19.4883 5.35247 17.4998 5.35035C17.1683 5.35035 16.8504 5.49127 16.616 5.74211C16.3815 5.99294 16.2498 6.33315 16.2498 6.68789C16.2498 7.04263 16.3815 7.38284 16.616 7.63367C16.8504 7.88451 17.1683 8.02543 17.4998 8.02543ZM28.8661 22.3893C29.5905 23.1666 29.9972 24.2195 29.9972 25.3172C29.9972 26.4149 29.5905 27.4678 28.8661 28.245L27.7286 29.6481C17.4911 40.1358 -7.42138 13.4853 2.22861 2.49604L3.66611 1.15849C4.39332 0.405026 5.36852 -0.0117893 6.38073 -0.00177682C7.39295 0.00823569 8.36078 0.444271 9.07485 1.212C9.1136 1.25346 11.4298 4.47292 11.4298 4.47292C12.1171 5.24552 12.4997 6.27182 12.4981 7.33847C12.4965 8.40513 12.1107 9.43008 11.4211 10.2003L9.9736 12.1477C10.7747 14.2304 11.9524 16.1232 13.4392 17.7174C14.926 19.3115 16.6926 20.5756 18.6373 21.437L20.4686 19.8787C21.1885 19.1414 22.1462 18.7291 23.1427 18.7276C24.1392 18.7261 25.098 19.1355 25.8198 19.8707C25.8198 19.8707 28.8273 22.3478 28.8661 22.3893ZM27.1461 24.3341C27.1461 24.3341 24.1548 21.8717 24.1161 21.8302C23.8586 21.557 23.5106 21.4037 23.148 21.4037C22.7853 21.4037 22.4373 21.557 22.1798 21.8302C22.1461 21.8676 19.6248 24.0171 19.6248 24.0171C19.4549 24.1618 19.2527 24.2566 19.0381 24.2923C18.8236 24.3279 18.604 24.3032 18.4011 24.2204C15.8817 23.2167 13.5933 21.6453 11.6909 19.6127C9.78851 17.5801 8.3166 15.1337 7.37485 12.4393C7.29135 12.2192 7.26413 11.9793 7.29598 11.7442C7.32784 11.5092 7.41762 11.2874 7.5561 11.1018C7.5561 11.1018 9.56485 8.40262 9.5986 8.36784C9.85393 8.09229 9.9972 7.71996 9.9972 7.33192C9.9972 6.94387 9.85393 6.57154 9.5986 6.29599C9.55985 6.25586 7.2586 3.05245 7.2586 3.05245C6.99723 2.80167 6.65611 2.66737 6.30516 2.67707C5.95422 2.68677 5.62003 2.83973 5.3711 3.10462L3.93361 4.44216C-3.11889 13.516 18.4698 35.3354 25.9011 27.821L27.0398 26.4166C27.3067 26.1521 27.467 25.787 27.4868 25.3984C27.5066 25.0097 27.3844 24.6281 27.1461 24.3341Z" fill="white"/>
</g>
<defs>
<clipPath id="clip0_203_395">
<rect width="30" height="32.101" fill="white"/>
</clipPath>
</defs>
</svg>
